<svg xmlns="http://www.w3.org/2000/svg" viewBox="0 0 800 600" width="100%" height="100%">
  <defs>
    <linearGradient id="bg-grad" x1="0%" y1="0%" x2="100%" y2="100%">
      <stop offset="0%" stop-color="#f8fafc" />
      <stop offset="100%" stop-color="#f1f5f9" />
    </linearGradient>
  </defs>
  <rect width="800" height="600" fill="url(#bg-grad)" />
  <rect x="20" y="20" width="760" height="560" rx="16" fill="none" stroke="#e2e8f0" stroke-width="3" stroke-dasharray="12 12" />

  <circle cx="400" cy="140" r="36" fill="#dcfce7" />
  <path d="M400 115c-15 0-20 15-20 25 15 0 20-15 20-25zM400 140c15 0 20-15 20-25-15 0-20 15-20 25z" fill="#15803d" stroke="#15803d" stroke-width="2"/>

  <g transform="translate(300, 200)" stroke="#64748b" stroke-width="10" fill="none" stroke-linecap="round" stroke-linejoin="round">
    <path d="M20 100l80-70 80 70v80h-160z" fill="#ffffff" />
    <rect x="75" y="120" width="50" height="60" fill="#e2e8f0" />
    <path d="M40 100h120" stroke="#15803d" stroke-width="8" />
    <path d="M160 180v-30c-15 0-15-20 0-20s15 20 0 20" fill="#e2e8f0" stroke="#15803d" stroke-width="6"/>
  </g>

  <text x="400" y="440" font-family="system-ui, -apple-system, sans-serif" font-size="28" font-weight="800" fill="#334155" text-anchor="middle" letter-spacing="3">DOM I OGRÓD</text>
  <text x="400" y="480" font-family="system-ui, -apple-system, sans-serif" font-size="18" font-weight="500" fill="#94a3b8" text-anchor="middle">Brak zdjęcia podglądowego</text>
</svg>
