<svg xmlns="http://www.w3.org/2000/svg" viewBox="0 0 800 600" width="100%" height="100%">
  <defs>
    <linearGradient id="bg-grad" x1="0%" y1="0%" x2="100%" y2="100%">
      <stop offset="0%" stop-color="#f8fafc" />
      <stop offset="100%" stop-color="#f1f5f9" />
    </linearGradient>
  </defs>
  <rect width="800" height="600" fill="url(#bg-grad)" />
  <rect x="20" y="20" width="760" height="560" rx="16" fill="none" stroke="#e2e8f0" stroke-width="3" stroke-dasharray="12 12" />

  <circle cx="400" cy="140" r="36" fill="#dcfce7" />
  <circle cx="388" cy="140" r="4" fill="#15803d" />
  <circle cx="400" cy="140" r="4" fill="#15803d" />
  <circle cx="412" cy="140" r="4" fill="#15803d" />

  <g transform="translate(300, 200)" stroke="#64748b" stroke-width="10" fill="none" stroke-linecap="round" stroke-linejoin="round">
    <path d="M40 80h120v20H40z" fill="#e2e8f0" />
    <path d="M100 65 c-10 0-15-10-5-20 c8-8 20-5 15 5 c-2 4-10 4-10 15 v5" stroke="#15803d" stroke-width="8" />
    <circle cx="100" cy="78" r="4" fill="#15803d" stroke="none" />
    <rect x="20" y="100" width="160" height="80" rx="4" fill="#ffffff" />
    <path d="M20 100l-20-40 80 0 20 40z" fill="#ffffff" />
    <path d="M180 100l20-40-80 0-20 40z" fill="#ffffff" />
  </g>

  <text x="400" y="440" font-family="system-ui, -apple-system, sans-serif" font-size="28" font-weight="800" fill="#334155" text-anchor="middle" letter-spacing="3">INNE</text>
  <text x="400" y="480" font-family="system-ui, -apple-system, sans-serif" font-size="18" font-weight="500" fill="#94a3b8" text-anchor="middle">Brak zdjęcia podglądowego</text>
</svg>
