<svg xmlns="http://www.w3.org/2000/svg" viewBox="0 0 800 600" width="100%" height="100%">
  <defs>
    <linearGradient id="bg-grad" x1="0%" y1="0%" x2="100%" y2="100%">
      <stop offset="0%" stop-color="#f8fafc" />
      <stop offset="100%" stop-color="#f1f5f9" />
    </linearGradient>
  </defs>
  <rect width="800" height="600" fill="url(#bg-grad)" />
  <rect x="20" y="20" width="760" height="560" rx="16" fill="none" stroke="#e2e8f0" stroke-width="3" stroke-dasharray="12 12" />

  <circle cx="400" cy="140" r="36" fill="#dcfce7" />
  <path d="M395 125v20l8-4 8 4v-20H395z" fill="#15803d" stroke="#15803d" stroke-width="2" stroke-linejoin="round"/>

  <g transform="translate(300, 200)" stroke="#64748b" stroke-width="10" fill="none" stroke-linecap="round" stroke-linejoin="round">
    <path d="M100 160v-90c-30-20-80-10-80 0v90c0-10 50-20 80 0" fill="#ffffff" />
    <path d="M100 160v-90c30-20 80-10 80 0v90c0-10-50-20-80 0" fill="#e2e8f0" />
    <line x1="40" y1="90" x2="80" y2="80" stroke="#15803d" stroke-width="6"/>
    <line x1="40" y1="110" x2="70" y2="100" stroke="#15803d" stroke-width="6"/>
  </g>

  <text x="400" y="440" font-family="system-ui, -apple-system, sans-serif" font-size="28" font-weight="800" fill="#334155" text-anchor="middle" letter-spacing="3">KSIĄŻKI</text>
  <text x="400" y="480" font-family="system-ui, -apple-system, sans-serif" font-size="18" font-weight="500" fill="#94a3b8" text-anchor="middle">Brak zdjęcia podglądowego</text>
</svg>
