<svg xmlns="http://www.w3.org/2000/svg" viewBox="0 0 800 600" width="100%" height="100%">
  <defs>
    <linearGradient id="bg-grad" x1="0%" y1="0%" x2="100%" y2="100%">
      <stop offset="0%" stop-color="#f8fafc" />
      <stop offset="100%" stop-color="#f1f5f9" />
    </linearGradient>
  </defs>
  <rect width="800" height="600" fill="url(#bg-grad)" />
  <rect x="20" y="20" width="760" height="560" rx="16" fill="none" stroke="#e2e8f0" stroke-width="3" stroke-dasharray="12 12" />

  <circle cx="400" cy="140" r="36" fill="#dcfce7" />
  <path d="M400 115l4 12h12l-10 8 4 12-10-8-10 8 4-12-10-8h12z" fill="#15803d" stroke="#15803d" stroke-width="2" stroke-linejoin="round"/>

  <g transform="translate(300, 200)" stroke="#64748b" stroke-width="10" fill="none" stroke-linecap="round" stroke-linejoin="round">
    <rect x="40" y="60" width="120" height="130" rx="8" fill="#ffffff" />
    <path d="M70 60v-20a30 30 0 0 1 60 0v20" stroke="#15803d" stroke-width="8" />
    <path d="M100 90l-40 30v20h80v-20z" fill="#e2e8f0" />
    <path d="M100 90c0-15 15-15 15-25s-20-15-20 0" stroke="#64748b" stroke-width="6"/>
  </g>

  <text x="400" y="440" font-family="system-ui, -apple-system, sans-serif" font-size="28" font-weight="800" fill="#334155" text-anchor="middle" letter-spacing="3">MODA</text>
  <text x="400" y="480" font-family="system-ui, -apple-system, sans-serif" font-size="18" font-weight="500" fill="#94a3b8" text-anchor="middle">Brak zdjęcia podglądowego</text>
</svg>
