<svg xmlns="http://www.w3.org/2000/svg" viewBox="0 0 800 600" width="100%" height="100%">
  <defs>
    <linearGradient id="bg-grad" x1="0%" y1="0%" x2="100%" y2="100%">
      <stop offset="0%" stop-color="#f8fafc" />
      <stop offset="100%" stop-color="#f1f5f9" />
    </linearGradient>
  </defs>
  <rect width="800" height="600" fill="url(#bg-grad)" />
  <rect x="20" y="20" width="760" height="560" rx="16" fill="none" stroke="#e2e8f0" stroke-width="3" stroke-dasharray="12 12" />

  <circle cx="400" cy="140" r="36" fill="#dcfce7" />
  <path d="M395 118a8 8 0 1 0-8 8l10 10v6h6v-6h6l4-4-18-14z" fill="#15803d" stroke="#15803d" stroke-width="2"/>

  <g transform="translate(300, 200)" stroke="#64748b" stroke-width="10" fill="none" stroke-linecap="round" stroke-linejoin="round">
    <path d="M10 130l30-50h80l40 50h30v30h-190z" fill="#ffffff" />
    <path d="M50 130l20-40h60l20 40z" fill="#e2e8f0" />
    <circle cx="50" cy="160" r="22" fill="#ffffff" stroke="#15803d" stroke-width="8"/>
    <circle cx="150" cy="160" r="22" fill="#ffffff" stroke="#15803d" stroke-width="8"/>
  </g>

  <text x="400" y="440" font-family="system-ui, -apple-system, sans-serif" font-size="28" font-weight="800" fill="#334155" text-anchor="middle" letter-spacing="3">MOTORYZACJA</text>
  <text x="400" y="480" font-family="system-ui, -apple-system, sans-serif" font-size="18" font-weight="500" fill="#94a3b8" text-anchor="middle">Brak zdjęcia podglądowego</text>
</svg>
