<svg xmlns="http://www.w3.org/2000/svg" viewBox="0 0 800 600" width="100%" height="100%">
  <defs>
    <linearGradient id="bg-grad" x1="0%" y1="0%" x2="100%" y2="100%">
      <stop offset="0%" stop-color="#f8fafc" />
      <stop offset="100%" stop-color="#f1f5f9" />
    </linearGradient>
  </defs>
  <rect width="800" height="600" fill="url(#bg-grad)" />
  <rect x="20" y="20" width="760" height="560" rx="16" fill="none" stroke="#e2e8f0" stroke-width="3" stroke-dasharray="12 12" />

  <circle cx="400" cy="140" r="36" fill="#dcfce7" />
  <path d="M390 145l6-10 8 10 6-16" fill="none" stroke="#15803d" stroke-width="3" stroke-linecap="round" stroke-linejoin="round"/>

  <g transform="translate(300, 200)" stroke="#64748b" stroke-width="10" fill="none" stroke-linecap="round" stroke-linejoin="round">
    <line x1="10" y1="100" x2="190" y2="100" stroke-width="12" />
    <rect x="40" y="40" width="20" height="120" rx="6" fill="#ffffff" />
    <rect x="25" y="55" width="15" height="90" rx="4" fill="#e2e8f0" />
    <rect x="140" y="40" width="20" height="120" rx="6" fill="#ffffff" />
    <rect x="160" y="55" width="15" height="90" rx="4" fill="#e2e8f0" />
    <line x1="50" y1="50" x2="50" y2="150" stroke="#15803d" stroke-width="4" stroke-dasharray="10 10"/>
    <line x1="150" y1="50" x2="150" y2="150" stroke="#15803d" stroke-width="4" stroke-dasharray="10 10"/>
  </g>

  <text x="400" y="440" font-family="system-ui, -apple-system, sans-serif" font-size="28" font-weight="800" fill="#334155" text-anchor="middle" letter-spacing="3">SPORT</text>
  <text x="400" y="480" font-family="system-ui, -apple-system, sans-serif" font-size="18" font-weight="500" fill="#94a3b8" text-anchor="middle">Brak zdjęcia podglądowego</text>
</svg>
